<svg width="120" height="103" viewBox="0 0 120 103" fill="none" xmlns="http://www.w3.org/2000/svg">
<path d="M114.238 10.4818H33.01C30.4365 10.4818 28.3502 12.568 28.3502 15.1416V96.3696C28.3502 98.9431 30.4365 101.029 33.01 101.029H114.238C116.812 101.029 118.898 98.9431 118.898 96.3696V15.1416C118.898 12.568 116.812 10.4818 114.238 10.4818Z" fill="#D7EFFF"/>
<path d="M113.401 102.129H33.8495C30.2099 102.129 27.2504 99.1697 27.2504 95.5301V15.9788C27.2504 12.3391 30.2099 9.37959 33.8495 9.37959H113.401C117.04 9.37959 120 12.3391 120 15.9788V95.5254C120 99.165 117.04 102.125 113.401 102.125V102.129ZM33.8495 11.5817C31.4223 11.5817 29.4501 13.5563 29.4501 15.9811V95.5254C29.4501 97.9526 31.4247 99.9248 33.8495 99.9248H113.401C115.828 99.9248 117.8 97.9502 117.8 95.5254V15.9788C117.8 13.5516 115.826 11.5793 113.401 11.5793H33.8495V11.5817Z" fill="#212F44"/>
<path d="M33.01 10.4818H114.238C116.811 10.4818 118.898 12.569 118.898 15.1416V33.6258H28.3502V15.1416C28.3502 12.569 30.4374 10.4818 33.01 10.4818Z" fill="#C12F2F"/>
<path d="M119.998 34.7257H27.2504V15.9788C27.2504 12.3391 30.2099 9.37959 33.8495 9.37959H113.401C117.04 9.37959 120 12.3391 120 15.9788V34.7257H119.998ZM29.4501 32.526H117.798V15.9788C117.798 13.5516 115.823 11.5793 113.398 11.5793H33.8495C31.4223 11.5793 29.4501 13.5539 29.4501 15.9788V32.526Z" fill="#212F44"/>
<path d="M18.9463 10.4818H100.174C102.747 10.4818 104.834 12.569 104.834 15.1416V92.0593C104.834 97.0075 100.812 101.029 95.864 101.029H18.9463C16.3737 101.029 14.2865 98.9422 14.2865 96.3696V15.1416C14.2865 12.569 16.3737 10.4818 18.9463 10.4818Z" fill="#F3F9FF"/>
<path d="M94.2482 102.129H19.7858C16.1462 102.129 13.1866 99.1697 13.1866 95.5301V15.9788C13.1866 12.3391 16.1462 9.37959 19.7858 9.37959H99.3324C102.972 9.37959 105.932 12.3391 105.932 15.9788V90.4435C105.932 96.8879 100.69 102.129 94.2459 102.129H94.2482ZM19.7858 11.5817C17.3586 11.5817 15.3864 13.5563 15.3864 15.9811V95.5254C15.3864 97.9526 17.361 99.9248 19.7858 99.9248H94.2482C99.4755 99.9248 103.737 95.6708 103.737 90.4365V15.9788C103.737 13.5516 101.762 11.5793 99.3371 11.5793H19.7858V11.5817Z" fill="#212F44"/>
<path d="M18.9463 10.4818H100.174C102.747 10.4818 104.834 12.569 104.834 15.1416V33.6258H14.2865V15.1416C14.2865 12.569 16.3737 10.4818 18.9463 10.4818Z" fill="#E24949"/>
<path d="M105.929 34.7257H13.1866V15.9788C13.1866 12.3391 16.1462 9.37959 19.7858 9.37959H99.3324C102.972 9.37959 105.932 12.3391 105.932 15.9788V34.7257H105.929ZM15.3817 32.526H103.732V15.9788C103.732 13.5516 101.757 11.5793 99.3324 11.5793H19.7858C17.3586 11.5793 15.3864 13.5539 15.3864 15.9788V32.526H15.3817ZM91.5466 92.4228C90.9416 92.4228 90.4468 91.928 90.4468 91.3229C90.4468 90.7179 90.9416 90.2231 91.5466 90.2231C98.2091 90.2231 103.633 84.7988 103.633 78.1363C103.633 77.5312 104.128 77.0364 104.733 77.0364C105.338 77.0364 105.833 77.5312 105.833 78.1363C105.833 86.0159 99.4262 92.4228 91.5466 92.4228Z" fill="#212F44"/>
<path d="M33.8277 29.1764V19.8527H35.5847V29.1764H33.8277ZM34.4689 21.5456V19.8527H39.9515V21.5456H34.4689ZM34.4689 25.4765V23.7836H39.2461V25.4765H34.4689ZM43.8951 29.2726C42.9289 29.2726 42.1799 29.013 41.6475 28.4935C41.1152 27.9741 40.8492 27.2398 40.8492 26.2907V25.5405C40.8492 24.5488 41.1046 23.7815 41.6156 23.2386C42.1264 22.6957 42.8477 22.4241 43.7799 22.4241C44.6605 22.4241 45.3413 22.748 45.8223 23.3957C46.3033 24.0434 46.5437 24.955 46.5437 26.1306V26.5665H41.9908V25.3801H44.9405L44.9213 25.2263C44.8742 24.8459 44.7546 24.5497 44.5623 24.3382C44.37 24.1267 44.109 24.0207 43.7799 24.0207C43.3566 24.0207 43.0286 24.1468 42.7957 24.3989C42.5626 24.651 42.4463 25.0082 42.4463 25.4697V26.3161C42.4463 26.7694 42.5734 27.1197 42.8278 27.3676C43.082 27.6157 43.438 27.7396 43.8955 27.7396C44.1305 27.7396 44.3636 27.6978 44.5944 27.6146C44.8252 27.5313 45.0346 27.4127 45.2229 27.2586L46.3708 28.2782C46.0245 28.5946 45.6354 28.8394 45.2037 29.0125C44.7719 29.1856 44.3357 29.2721 43.8955 29.2721L43.8951 29.2726ZM48.0825 29.1764V19.8527H49.8395V29.1764H48.0825ZM51.3849 29.2726C50.9959 29.2726 50.6603 29.1731 50.3782 28.9745C50.0961 28.7759 49.8864 28.4947 49.7497 28.1312L49.8395 26.6116C49.8395 26.8297 49.878 27.0156 49.9549 27.1695C50.0318 27.3233 50.1441 27.4408 50.2916 27.5222C50.4391 27.6035 50.6176 27.6441 50.827 27.6441C51.1561 27.6441 51.4117 27.5351 51.5934 27.317C51.7749 27.0989 51.8659 26.7912 51.8659 26.3935V25.3353C51.8659 24.9294 51.7749 24.614 51.5934 24.3896C51.4117 24.1651 51.1563 24.0528 50.827 24.0528C50.6174 24.0528 50.4391 24.0945 50.2916 24.1778C50.1441 24.261 50.032 24.3818 49.9549 24.5401C49.8777 24.6984 49.8395 24.8907 49.8395 25.1172L49.7049 23.6424C49.8845 23.2533 50.1204 22.9532 50.4134 22.7414C50.7063 22.5299 51.0299 22.4239 51.3849 22.4239C52.0986 22.4239 52.6501 22.6771 53.0394 23.1837C53.4282 23.6902 53.6229 24.4053 53.6229 25.3285V26.393C53.6229 27.3078 53.4282 28.0165 53.0394 28.5186C52.6501 29.0209 52.0986 29.2721 51.3849 29.2721V29.2726ZM55.226 29.1764V22.5203H57.1113V29.1764H55.226ZM58.9709 24.3736C58.8846 24.285 58.7778 24.219 58.66 24.1813C58.5338 24.1384 58.3896 24.1173 58.2271 24.1173C57.872 24.1173 57.5974 24.2315 57.403 24.4604C57.2084 24.6893 57.1113 25.0066 57.1113 25.4127L56.9767 23.6813C57.1603 23.288 57.3988 22.9804 57.6917 22.7578C57.9844 22.5355 58.3061 22.4243 58.6567 22.4243C58.9346 22.4243 59.1858 22.4682 59.4102 22.5559C59.6346 22.6436 59.8302 22.7728 59.9969 22.9438L58.9709 24.3736ZM62.5876 22.5203V26.5665C62.5876 26.8871 62.6784 27.1362 62.8601 27.3137C63.0416 27.4912 63.297 27.5799 63.6265 27.5799C63.956 27.5799 64.2088 27.4889 64.3863 27.3074C64.5636 27.1258 64.6525 26.866 64.6525 26.5283L64.7423 27.9839C64.6309 28.3129 64.4353 28.6103 64.1555 28.8753C63.8755 29.1403 63.5132 29.2728 63.0686 29.2728C62.3545 29.2728 61.8032 29.042 61.4141 28.5803C61.025 28.1185 60.8306 27.4689 60.8306 26.631V22.5207H62.5876V22.5203ZM64.6525 29.1764V22.5203H66.4031V29.1764H64.6525ZM69.9426 29.2726C69.233 29.2726 68.7006 29.1037 68.3458 28.766C67.9908 28.4283 67.8135 27.911 67.8135 27.2143C67.8135 26.5518 68.0112 26.0567 68.4066 25.7298C68.8019 25.4026 69.395 25.2392 70.186 25.2392H71.8532L71.943 26.5794H70.1924C69.9271 26.5794 69.7283 26.632 69.596 26.7366C69.4635 26.8411 69.3971 27.0006 69.3971 27.2143C69.3971 27.4324 69.4813 27.5937 69.6504 27.6983C69.8193 27.8029 70.0704 27.8554 70.4039 27.8554C70.8696 27.8554 71.2184 27.8019 71.4491 27.695C71.6799 27.5881 71.7955 27.4213 71.7955 27.1948L71.9301 28.1631C71.9045 28.4152 71.791 28.6237 71.5903 28.7883C71.3893 28.9529 71.1424 29.0749 70.8497 29.1539C70.5538 29.2334 70.2487 29.2733 69.9424 29.2726H69.9426ZM71.7957 29.1764V24.9571C71.7957 24.6494 71.693 24.4121 71.488 24.2453C71.2831 24.0786 70.9921 23.9953 70.6159 23.9953C70.3678 23.9953 70.1222 24.035 69.8783 24.114C69.6345 24.193 69.4187 24.3075 69.2306 24.4571L68.1406 23.3863C68.4056 23.0829 68.7562 22.8465 69.1922 22.6778C69.6281 22.5092 70.1112 22.4246 70.6415 22.4246C71.5176 22.4246 72.1953 22.6406 72.6742 23.0723C73.1528 23.504 73.3923 24.1131 73.3923 24.8999V29.1769H71.7955L71.7957 29.1764ZM75.1239 29.1764V22.5203H77.0092V29.1764H75.1239ZM78.8689 24.3736C78.7825 24.285 78.6757 24.219 78.5579 24.1813C78.4317 24.1384 78.2875 24.1173 78.125 24.1173C77.7699 24.1173 77.4953 24.2315 77.3009 24.4604C77.1063 24.6893 77.0092 25.0066 77.0092 25.4127L76.8746 23.6813C77.0582 23.288 77.2967 22.9804 77.5896 22.7578C77.8823 22.5355 78.204 22.4243 78.5546 22.4243C78.8325 22.4243 79.0837 22.4682 79.3081 22.5559C79.5325 22.6436 79.7281 22.7728 79.8948 22.9438L78.8689 24.3736ZM82.8061 29.7214L80.0231 22.5203H81.6776L83.9156 28.3043L82.8063 29.7214H82.8061ZM84.5183 22.5203H86.1727L83.2101 30.7345C83.0434 31.1918 82.8126 31.5093 82.5176 31.6869C82.2226 31.8642 81.8143 31.953 81.2928 31.953H80.9016V30.2474H81.2928C81.4764 30.2474 81.6314 30.2066 81.7576 30.1255C81.8835 30.0441 81.9808 29.9074 82.0493 29.7151L84.518 22.5203H84.5183Z" fill="#D7EFFF"/>
<path d="M34.7285 16.6457C35.0833 15.4615 34.3818 14.2051 33.1616 13.8395C31.9414 13.4738 30.6646 14.1375 30.3097 15.3217C29.9549 16.5059 30.6564 17.7623 31.8766 18.1279C33.0968 18.4935 34.3736 17.8299 34.7285 16.6457Z" fill="#DCFDFF"/>
<path d="M31.6407 18.9496C29.9625 18.4461 28.9937 16.71 29.4825 15.0811C29.9712 13.4521 31.7354 12.5359 33.4136 13.0394C35.0918 13.5429 36.0605 15.279 35.5718 16.9079C35.0831 18.5368 33.3188 19.4531 31.6407 18.9496ZM32.927 14.6613C32.1697 14.434 31.374 14.8475 31.1536 15.5824C30.9331 16.3174 31.37 17.1004 32.1273 17.3277C32.8845 17.5549 33.6802 17.1415 33.9007 16.4065C34.1211 15.6716 33.6842 14.8885 32.927 14.6613Z" fill="#212F44"/>
<path d="M52.4737 16.6428C52.8285 15.4586 52.127 14.2022 50.9068 13.8366C49.6866 13.471 48.4097 14.1346 48.0549 15.3188C47.7001 16.503 48.4016 17.7594 49.6218 18.125C50.842 18.4907 52.1188 17.827 52.4737 16.6428Z" fill="#DCFDFF"/>
<path d="M49.3918 18.9496C47.7137 18.4461 46.7449 16.71 47.2336 15.0811C47.7223 13.4521 49.4866 12.5359 51.1647 13.0394C52.8429 13.5429 53.8117 15.279 53.323 16.9079C52.8342 18.5368 51.07 19.4531 49.3918 18.9496ZM50.6781 14.6613C49.9209 14.434 49.1252 14.8475 48.9048 15.5824C48.6843 16.3174 49.1212 17.1004 49.8784 17.3277C50.6357 17.5549 51.4314 17.1415 51.6518 16.4065C51.8723 15.6716 51.4354 14.8885 50.6781 14.6613Z" fill="#212F44"/>
<path d="M70.3603 16.6398C70.7151 15.4556 70.0136 14.1992 68.7934 13.8335C67.5732 13.4679 66.2963 14.1315 65.9415 15.3158C65.5867 16.5 66.2882 17.7564 67.5084 18.122C68.7286 18.4876 70.0054 17.824 70.3603 16.6398Z" fill="#DCFDFF"/>
<path d="M67.2844 18.9496C65.6062 18.4461 64.6375 16.71 65.1262 15.0811C65.6149 13.4521 67.3791 12.5359 69.0573 13.0394C70.7355 13.5429 71.7043 15.279 71.2155 16.9079C70.7268 18.5368 68.9626 19.4531 67.2844 18.9496ZM68.5707 14.6613C67.8135 14.434 67.0178 14.8475 66.7973 15.5824C66.5769 16.3174 67.0138 17.1004 67.771 17.3277C68.5283 17.5549 69.324 17.1415 69.5444 16.4065C69.7649 15.6716 69.328 14.8885 68.5707 14.6613Z" fill="#212F44"/>
<path d="M88.2471 16.6367C88.6019 15.4525 87.9004 14.1961 86.6802 13.8305C85.46 13.4649 84.1832 14.1285 83.8283 15.3127C83.4735 16.4969 84.175 17.7533 85.3952 18.119C86.6154 18.4846 87.8923 17.821 88.2471 16.6367Z" fill="#DCFDFF"/>
<path d="M85.1767 18.9496C83.4986 18.4461 82.5298 16.71 83.0185 15.0811C83.5073 13.4521 85.2715 12.5359 86.9497 13.0394C88.6278 13.5429 89.5966 15.279 89.1079 16.9079C88.6192 18.5368 86.8549 19.4531 85.1767 18.9496ZM86.463 14.6613C85.7058 14.434 84.9101 14.8475 84.6897 15.5824C84.4692 16.3174 84.9061 17.1004 85.6634 17.3277C86.4206 17.5549 87.2163 17.1415 87.4367 16.4065C87.6572 15.6716 87.2203 14.8885 86.463 14.6613Z" fill="#212F44"/>
<path d="M32.2595 16.8129C27.6399 16.2766 24.3178 12.0821 24.8539 7.46242C25.39 2.84276 29.5847 -0.479338 34.2044 0.0567575C38.824 0.592853 42.1461 4.78758 41.61 9.40724C41.598 9.52389 41.5629 9.63698 41.5068 9.73997C41.4507 9.84295 41.3747 9.93378 41.2833 10.0072C41.1918 10.0806 41.0867 10.1351 40.974 10.1675C40.8613 10.1999 40.7433 10.2097 40.6268 10.1962C40.5103 10.1826 40.3977 10.1461 40.2954 10.0887C40.1932 10.0313 40.1033 9.9542 40.0311 9.8618C39.9589 9.76941 39.9057 9.6636 39.8747 9.5505C39.8437 9.43741 39.8355 9.31928 39.8505 9.20298C40.274 5.55349 37.6496 2.23983 34.0001 1.8163C30.3506 1.39277 27.037 4.01697 26.6134 7.66645C26.1899 11.3159 28.8143 14.6296 32.4638 15.0531C32.5805 15.0652 32.6936 15.1002 32.7965 15.1563C32.8995 15.2124 32.9903 15.2884 33.0637 15.3799C33.1371 15.4713 33.1916 15.5765 33.2241 15.6891C33.2565 15.8018 33.2663 15.9198 33.2527 16.0363C33.2392 16.1528 33.2027 16.2655 33.1453 16.3677C33.0879 16.47 33.0108 16.5598 32.9184 16.6321C32.826 16.7043 32.7202 16.7574 32.6071 16.7884C32.494 16.8194 32.3758 16.8279 32.2595 16.8129ZM50.1803 16.8129C45.5606 16.2766 42.2385 12.0821 42.7746 7.46242C43.3109 2.84276 47.5054 -0.479338 52.1251 0.0567575C56.7448 0.592853 60.0669 4.78758 59.5308 9.40724C59.5187 9.52389 59.4836 9.63698 59.4276 9.73997C59.3715 9.84295 59.2955 9.93378 59.204 10.0072C59.1126 10.0806 59.0074 10.1351 58.8947 10.1675C58.782 10.1999 58.664 10.2097 58.5475 10.1962C58.4311 10.1826 58.3184 10.1461 58.2162 10.0887C58.1139 10.0313 58.024 9.9542 57.9518 9.8618C57.8796 9.76941 57.8265 9.6636 57.7954 9.5505C57.7644 9.43741 57.7562 9.31928 57.7712 9.20298C58.1947 5.55349 55.5703 2.23983 51.9208 1.8163C48.2713 1.39277 44.9577 4.01697 44.5342 7.66645C44.1106 11.3159 46.7351 14.6296 50.3845 15.0531C50.5012 15.0652 50.6143 15.1002 50.7173 15.1563C50.8203 15.2124 50.9111 15.2884 50.9845 15.3799C51.0579 15.4713 51.1124 15.5765 51.1448 15.6891C51.1772 15.8018 51.187 15.9198 51.1735 16.0363C51.1599 16.1528 51.1234 16.2655 51.066 16.3677C51.0086 16.47 50.9315 16.5598 50.8391 16.6321C50.7467 16.7043 50.6409 16.7574 50.5278 16.7884C50.4147 16.8194 50.2966 16.8279 50.1803 16.8129ZM68.0445 16.8129C63.4248 16.2766 60.1027 12.0821 60.6388 7.46242C61.1752 2.84276 65.3697 -0.479338 69.9893 0.056992C74.609 0.593322 77.9311 4.78781 77.395 9.40747C77.3829 9.52412 77.3479 9.63722 77.2918 9.7402C77.2357 9.84319 77.1597 9.93401 77.0682 10.0074C76.9768 10.0808 76.8716 10.1353 76.759 10.1677C76.6463 10.2002 76.5283 10.2099 76.4118 10.1964C76.2953 10.1829 76.1826 10.1464 76.0804 10.089C75.9781 10.0316 75.8883 9.95443 75.816 9.86204C75.7438 9.76965 75.6907 9.66383 75.6597 9.55074C75.6287 9.43764 75.6204 9.31952 75.6354 9.20321C76.059 5.55373 73.4345 2.24007 69.785 1.81654C66.1356 1.39301 62.8219 4.0172 62.3984 7.66669C61.9748 11.3162 64.5993 14.6298 68.2488 15.0534C68.3654 15.0654 68.4785 15.1005 68.5815 15.1566C68.6845 15.2127 68.7753 15.2886 68.8487 15.3801C68.9221 15.4716 68.9766 15.5767 69.009 15.6894C69.0415 15.8021 69.0512 15.9201 69.0377 16.0366C69.0242 16.1531 68.9876 16.2657 68.9302 16.368C68.8729 16.4702 68.7957 16.5601 68.7033 16.6323C68.6109 16.7045 68.5051 16.7577 68.392 16.7887C68.2789 16.8197 68.1608 16.8279 68.0445 16.8129ZM85.7957 16.8129C81.176 16.2766 77.8539 12.0821 78.39 7.46242C78.9263 2.84276 83.1208 -0.479338 87.7405 0.056992C92.3602 0.593322 95.6823 4.78781 95.1462 9.40747C95.1341 9.52412 95.099 9.63722 95.0429 9.7402C94.9869 9.84319 94.9109 9.93401 94.8194 10.0074C94.728 10.0808 94.6228 10.1353 94.5101 10.1677C94.3974 10.2002 94.2794 10.2099 94.1629 10.1964C94.0465 10.1829 93.9338 10.1464 93.8316 10.089C93.7293 10.0316 93.6395 9.95443 93.5672 9.86204C93.495 9.76965 93.4419 9.66383 93.4109 9.55074C93.3798 9.43764 93.3716 9.31952 93.3866 9.20321C93.8101 5.55373 91.1857 2.24007 87.5362 1.81654C83.8867 1.39301 80.5731 4.0172 80.1496 7.66669C79.726 11.3162 82.3505 14.6298 85.9999 15.0534C86.1166 15.0654 86.2297 15.1005 86.3327 15.1566C86.4357 15.2127 86.5265 15.2886 86.5999 15.3801C86.6733 15.4716 86.7278 15.5767 86.7602 15.6894C86.7926 15.8021 86.8024 15.9201 86.7889 16.0366C86.7753 16.1531 86.7388 16.2657 86.6814 16.368C86.624 16.4702 86.5469 16.5601 86.4545 16.6323C86.3621 16.7045 86.2563 16.7577 86.1432 16.7887C86.0301 16.8197 85.912 16.8279 85.7957 16.8129Z" fill="#212F44"/>
<path d="M30.7059 84.0626V76.4262L46.1335 56.1447C46.834 55.2378 47.375 54.3049 47.7566 53.3464C48.1377 52.388 48.3286 51.4966 48.3286 50.6723V50.6104C48.3286 49.3944 47.9369 48.4569 47.1537 47.7969C46.3702 47.1375 45.2572 46.8075 43.8147 46.8075C42.4336 46.8075 41.3052 47.2665 40.4293 48.1834C39.5529 49.1008 39.0224 50.4047 38.8369 52.0944V52.1253H30.1492V52.0944C30.4376 47.8279 31.8032 44.5196 34.2456 42.1701C36.6881 39.8205 39.857 38.6456 43.7528 38.6456C47.9777 38.6456 51.2501 39.6659 53.569 41.7064C55.8878 43.7469 57.0473 46.6328 57.0473 50.3632V50.3942C57.0473 52.4347 56.6918 54.4597 55.9807 56.4692C55.2697 58.4788 54.2751 60.2981 52.9972 61.9263L41.929 75.9009H57.2947V84.0631H30.7059V84.0626ZM76.649 84.5265C73.9483 84.5265 71.5369 84.0319 69.4143 83.0425C67.291 82.0531 65.6006 80.6207 64.3439 78.7451C63.0864 76.8697 62.3852 74.6022 62.2415 71.9433H70.9911C71.1968 73.3243 71.7123 74.3963 72.5371 75.1587C73.3611 75.9213 74.423 76.3026 75.7215 76.3026C77.3291 76.3026 78.5706 75.8542 79.447 74.9577C80.3229 74.0612 80.7612 72.7988 80.7612 71.1706V70.1195C80.7612 68.4087 80.4054 67.0896 79.6944 66.1621C78.9833 65.2346 77.9679 64.7707 76.6492 64.7707H72.8464V56.6085H76.6492C77.7205 56.6085 78.5504 56.2019 79.1379 55.3872C79.7253 54.5732 80.0192 53.4346 80.0192 51.971V51.1981C80.0192 49.8175 79.6944 48.7507 79.0452 47.9982C78.3959 47.2458 77.4841 46.8697 76.3092 46.8697C75.1544 46.8697 74.1707 47.3026 73.3564 48.1682C72.542 49.0338 71.9909 50.2603 71.7024 51.8472H62.9837C63.3547 47.6633 64.8078 44.4169 67.3431 42.1084C69.8784 39.8003 72.97 38.6456 76.6183 38.6456C80.5958 38.6456 83.6722 39.661 85.847 41.6909C88.0214 43.7214 89.1089 46.6019 89.1089 50.3323V51.6927C89.1089 53.7747 88.5833 55.5882 87.532 57.1341C86.4807 58.68 84.9861 59.8345 83.0491 60.5969C85.2134 61.0915 86.8876 62.2251 88.073 63.9978C89.2583 65.7707 89.8509 68.0276 89.8509 70.7686V72.129C89.8509 76.066 88.6961 79.1163 86.3881 81.2804C84.0793 83.4447 80.8329 84.5267 76.6492 84.5267L76.649 84.5265Z" fill="#212F44"/>
<path d="M91.5466 91.3229H14.2865C7.00253 91.3229 1.09985 85.4179 1.09985 78.1363H78.3623C78.3623 85.4202 84.2626 91.3229 91.5442 91.3229H91.5466Z" fill="#D7EFFF"/>
<path d="M91.5466 92.4228H14.2865C6.3975 92.4228 0 86.0253 0 78.1363C0 77.5312 0.494821 77.0364 1.09986 77.0364H78.3623C78.9674 77.0364 79.4622 77.5312 79.4622 78.1363C79.4622 84.7988 84.8818 90.223 91.5443 90.223V92.4228H91.5466ZM3.51769 79.2361C2.83291 79.2361 2.30057 79.8552 2.43189 80.5213C3.54114 86.0487 8.43307 90.2183 14.2818 90.2183H83.9367C80.4753 88.028 78.0152 84.3931 77.4079 80.1671C77.3281 79.6278 76.8685 79.2314 76.3221 79.2314H3.51769V79.2361Z" fill="#212F44"/>
</svg>
