<svg width="111" height="120" viewBox="0 0 111 120" fill="none" xmlns="http://www.w3.org/2000/svg">
<path d="M80.6541 61.0215C80.6541 82.9458 64.3946 100.719 44.3298 100.719C24.2649 100.719 8.00545 82.9458 8.00545 61.0215C8.00545 39.0972 24.2649 21.3242 44.3298 21.3242C64.3946 21.3242 80.6541 39.1404 80.6541 61.0215Z" fill="#EFC9AF"/>
<path d="M44.2865 101.54C23.7892 101.54 7.14059 83.3783 7.14059 61.0215C7.14059 38.6647 23.7892 20.5026 44.2865 20.5026C64.7838 20.5026 81.4325 38.6647 81.4325 61.0215C81.4325 83.3783 64.7838 101.54 44.2865 101.54ZM44.2865 22.1458C24.6974 22.1458 8.78384 39.5729 8.78384 61.0215C8.78384 82.4702 24.7406 99.8972 44.2865 99.8972C63.8325 99.8972 79.7893 82.4702 79.7893 61.0215C79.7893 39.5729 63.8757 22.1458 44.2865 22.1458Z" fill="black"/>
<path d="M32.8271 59.6377C33.6055 60.4161 33.6055 61.6701 32.8271 62.4485C32.0487 63.2269 30.7946 63.2269 30.0163 62.4485C29.2379 61.6701 29.2379 60.4161 30.0163 59.6377C30.7946 58.8593 32.0487 58.8593 32.8271 59.6377ZM55.6595 59.6377C54.8811 60.4161 54.8811 61.6701 55.6595 62.4485C56.4379 63.2269 57.6919 63.2269 58.4703 62.4485C59.2487 61.6701 59.2487 60.4161 58.4703 59.6377C57.7352 58.8593 56.4811 58.8593 55.6595 59.6377Z" fill="black"/>
<path d="M9.51896 52.8053C9.51896 52.8053 13.973 92.8918 43.3352 93.6269C77.9298 94.4485 79.3568 51.5512 79.3568 51.5512C79.3568 51.5512 92.1568 103.27 74.946 109.627C66.0811 112.913 59.8541 106.903 59.8541 106.903C59.8541 106.903 55.2271 119.011 43.2919 119.184C31.3568 119.357 26.946 106.47 26.946 106.47C26.946 106.47 19.5082 112.308 11.6379 108.286C0.351394 102.535 -0.340497 71.6593 9.51896 52.8053Z" fill="white"/>
<path d="M42.946 120.005C32.7406 120.005 27.8541 110.794 26.5136 107.724C24.2649 109.194 17.9082 112.438 11.2055 109.022C8.0487 107.378 5.49735 103.832 3.8541 98.6864C-0.297247 85.6269 1.82167 65.735 8.74059 52.4161C8.91356 52.1134 9.25951 51.9404 9.60546 51.9837C9.9514 52.0702 10.2109 52.3296 10.2541 52.6756C10.2541 52.762 11.4217 62.708 16.0919 72.6107C22.2757 85.7134 31.4433 92.5026 43.2919 92.7621C57.2595 93.108 67.4217 86.3188 73.4757 72.5675C78.0595 62.2323 78.4487 51.5945 78.4487 51.4647C78.4487 51.0756 78.7946 50.7296 79.1838 50.6864C79.573 50.6431 79.9622 50.9026 80.0487 51.2918C80.5676 53.4107 92.8055 103.789 75.1622 110.319C67.7676 113.043 62.146 109.713 60.0703 108.157C58.6 111.14 53.4541 119.789 43.2055 119.962C43.1622 120.005 43.0757 120.005 42.946 120.005ZM26.9028 105.649C26.9892 105.649 27.0757 105.649 27.119 105.692C27.3784 105.778 27.5514 105.951 27.6379 106.211C27.6811 106.34 31.919 118.362 42.946 118.362H43.2055C54.4487 118.146 58.9892 106.686 59.0325 106.6C59.119 106.34 59.3352 106.167 59.5946 106.081C59.8541 106.038 60.1568 106.081 60.3298 106.297C60.5892 106.513 66.3406 111.919 74.6001 108.849C87.8325 103.962 82.2541 69.7134 79.573 56.7404C78.9676 60.8918 77.7136 67.0323 74.9892 73.2161C68.8487 87.0972 58.2541 94.4485 44.2433 94.4485H43.2487C30.9244 94.1458 21.0217 86.8377 14.6217 73.3026C11.2919 66.1675 9.73519 59.162 9.08654 55.5296C3.33519 68.2431 1.69194 86.4485 5.4541 98.1675C6.96762 102.881 9.21627 106.124 11.9838 107.551C19.2487 111.27 26.3406 105.865 26.4271 105.822C26.5568 105.692 26.7298 105.649 26.9028 105.649Z" fill="black"/>
<path d="M44.0271 73.6918C43.5947 84.6323 24.9136 87.5729 14.9676 81.1729C20.2865 79.6161 21.6703 67.2053 28.2433 66.3404C34.8163 65.5188 38.5784 68.1566 38.5784 68.1566C38.5784 68.1566 42.4703 69.1512 44.0271 73.6918Z" fill="white"/>
<path d="M27.5514 85.3242C22.8379 85.3242 18.0811 84.1566 14.4919 81.8647C14.2325 81.6918 14.0595 81.3891 14.146 81.0431C14.1892 80.7404 14.4054 80.481 14.7081 80.3945C16.8271 79.7891 18.3406 76.935 19.9406 73.908C22.0163 70.0593 24.1352 66.0377 28.0703 65.562C34.2973 64.7837 38.1027 66.9891 38.8379 67.4215C39.6163 67.681 43.2054 68.9783 44.719 73.4323C44.7622 73.5188 44.7622 73.6053 44.7622 73.735C44.6325 77.5837 42.3406 80.8269 38.319 82.9458C35.2919 84.5458 31.4433 85.3242 27.5514 85.3242ZM16.6541 81.2593C22.7514 84.4593 31.6163 84.5891 37.6271 81.4756C40.0487 80.2215 42.9892 77.8431 43.2054 73.8215C41.7784 69.8864 38.4054 68.9783 38.3622 68.9783L38.1027 68.8485C38.0595 68.8053 34.4703 66.3837 28.3298 67.162C25.2163 67.5512 23.2703 71.1837 21.4109 74.6864C19.9838 77.3674 18.6 79.9188 16.6541 81.2593Z" fill="black"/>
<path d="M48.7838 68.1999C48.7838 68.1999 52.546 65.5621 59.119 66.3837C65.6919 67.2053 67.0757 79.6594 72.3946 81.2161C62.4487 87.6161 43.7244 84.6756 43.3352 73.735C44.8487 69.1512 48.7838 68.1999 48.7838 68.1999Z" fill="white"/>
<path d="M59.7676 85.3242C55.8757 85.3242 52.0703 84.5458 48.9568 82.9026C44.9352 80.8269 42.6433 77.5404 42.5136 73.6918C42.5136 73.6053 42.5136 73.4756 42.5568 73.3891C44.0703 68.935 47.6595 67.6377 48.4379 67.3783C49.173 66.9026 53.0217 64.6972 59.2055 65.5188C63.1406 66.0377 65.3028 70.0161 67.3352 73.8648C68.9352 76.8918 70.4487 79.7458 72.5676 80.3512C72.8703 80.4377 73.0865 80.6972 73.1298 80.9999C73.173 81.3026 73.0433 81.6485 72.7838 81.8215C69.2379 84.1567 64.4811 85.3242 59.7676 85.3242ZM44.1136 73.8215C44.3298 77.8864 47.2703 80.2215 49.6919 81.4756C55.6595 84.5891 64.5676 84.4161 70.6649 81.2594C68.719 79.9621 67.3784 77.3675 65.9514 74.6864C64.0919 71.1837 62.146 67.5945 59.0325 67.1621C52.8919 66.3837 49.3028 68.8053 49.2595 68.8485L49.0001 68.9783C48.8271 69.0215 45.5406 69.9296 44.1136 73.8215Z" fill="black"/>
<path d="M43.2487 64.3945C51.5514 64.3945 51.8973 74.7728 42.773 74.7728C33.6487 74.7728 34.946 64.3945 43.2487 64.3945Z" fill="#FD5B53"/>
<path d="M42.773 75.5945C40.5676 75.5945 38.7514 75.0323 37.4541 73.908C36.2865 72.9134 35.6379 71.4864 35.6379 69.9728C35.6379 66.8593 38.319 63.5728 43.2487 63.5728C47.919 63.5728 50.3838 66.5566 50.3838 69.5404C50.3838 71.1404 49.6919 72.6539 48.4379 73.735C47.0541 74.9891 45.1082 75.5945 42.773 75.5945ZM43.2487 65.2161C39.3568 65.2161 37.2811 67.681 37.2811 69.9728C37.2811 71.0107 37.7136 71.962 38.5352 72.6972C39.5298 73.5188 41.0001 73.9945 42.773 73.9945C44.6757 73.9945 46.2757 73.5188 47.3568 72.5674C48.2649 71.7891 48.7406 70.708 48.7406 69.5837C48.7406 67.4647 47.0541 65.2161 43.2487 65.2161ZM44.0271 85.9728C42.1244 85.9728 40.9136 83.7674 40.7838 83.508C40.5676 83.1188 40.7406 82.5999 41.1298 82.4269C41.519 82.2107 42.0379 82.3837 42.2109 82.7728C42.5136 83.2918 43.2919 84.3728 44.0271 84.3728C44.546 84.3728 45.1082 83.8107 45.6703 82.7728C45.8865 82.3837 46.3622 82.2107 46.7514 82.4269C47.1406 82.6431 47.3136 83.1188 47.0974 83.508C46.2325 85.1512 45.1947 85.9728 44.0271 85.9728Z" fill="black"/>
<path d="M11.5946 35.5945C11.5946 35.5945 14.6649 2.90258 47.919 0.956631C81.173 -0.989315 92.1136 19.2485 92.1136 19.2485V23.3134C92.1136 23.3134 75.9406 27.5945 76.4595 35.5945C76.9784 43.6377 11.5946 35.5945 11.5946 35.5945Z" fill="#FD5B53"/>
<path d="M59.4217 40.0053C41.4325 40.0053 15.6163 36.935 11.5081 36.4161C11.0757 36.3729 10.773 35.9837 10.8163 35.5512C10.8163 35.2053 11.6379 27.0756 16.6109 18.5999C21.1946 10.7296 30.3622 1.17285 47.8757 0.135014C65.3027 -0.902824 76.546 4.24312 82.946 8.69718C89.9082 13.5837 92.6757 18.6431 92.8055 18.8593C92.8487 18.9891 92.8919 19.1188 92.8919 19.2485V23.3134C92.8919 23.7026 92.6325 24.0053 92.2865 24.0918C92.1136 24.135 76.7622 28.2864 77.2379 35.5512C77.2811 36.0269 77.1514 36.762 76.4595 37.4107C74.4703 39.3134 67.7676 40.0053 59.4217 40.0053ZM12.5027 34.9026C29.1082 36.8918 70.4919 40.7837 75.3352 36.2431C75.5946 35.9837 75.6379 35.8107 75.6379 35.6377C75.1622 27.8539 88.2217 23.5729 91.2919 22.6647V19.4647C90.773 18.5566 87.919 14.1458 81.9514 9.99447C75.7676 5.67015 64.8703 0.783663 48.0054 1.77826C34.4703 2.55664 24.3946 8.48096 17.9946 19.4215C14.1027 26.1242 12.8487 32.6972 12.5027 34.9026Z" fill="black"/>
<path d="M99.2487 9.56204C105.778 10.3404 110.405 16.2647 109.627 22.7945C108.849 29.3242 102.924 33.9512 96.3946 33.1729C89.8649 32.3945 85.2379 26.4702 86.0163 19.9404C86.8379 13.4107 92.7622 8.78367 99.2487 9.56204Z" fill="white"/>
<path d="M97.8649 34.0377C97.346 34.0377 96.8271 33.9945 96.3082 33.9512C89.346 33.1296 84.373 26.7729 85.2379 19.8107C86.0595 12.8485 92.4163 7.87556 99.3784 8.74042C106.341 9.56204 111.314 15.9188 110.449 22.881C110.06 26.2539 108.33 29.2377 105.692 31.3566C103.4 33.1296 100.676 34.0377 97.8649 34.0377ZM97.8217 10.2972C92.2865 10.2972 87.5298 14.4053 86.8379 20.0269C86.1028 26.081 90.4271 31.6161 96.4811 32.3512C99.4217 32.6972 102.319 31.8756 104.654 30.0593C106.989 28.2431 108.46 25.6053 108.805 22.6647C109.541 16.6107 105.216 11.0756 99.1622 10.3404C98.7298 10.2972 98.2541 10.2972 97.8217 10.2972Z" fill="black"/>
<path d="M44.5027 23.5728C69.1082 23.3134 93.2811 44.8485 86.5784 53.9729C81.6919 60.6323 59.6811 44.2431 42.9027 43.9404C26.1244 43.681 8.35139 62.5783 2.08112 53.9729C-5.18374 43.9837 19.8973 23.8756 44.5027 23.5728Z" fill="white"/>
<path d="M6.66491 57.0864C4.54599 57.0864 2.77302 56.3512 1.43248 54.4918C-0.470224 51.8972 -0.470224 48.5675 1.38924 44.8918C6.53518 34.5999 25.519 22.9675 44.4595 22.7512H44.9352C63.0109 22.7512 81.5622 34.4269 87.0109 45.0215C88.9136 48.7404 89.0001 52.0269 87.1838 54.4485C84.2001 58.5134 76.6325 55.4864 67.0757 51.5945C59.2919 48.4377 50.4703 44.8918 42.8595 44.762H42.5136C35.0757 44.762 27.4217 48.5675 20.6325 51.9837C15.3136 54.6647 10.4703 57.0864 6.66491 57.0864ZM44.9352 24.3945H44.4595C26.6433 24.6107 7.78924 35.7675 2.81626 45.6269C1.73518 47.7891 0.827074 50.9026 2.72978 53.5404C5.71356 57.6485 11.9838 54.535 19.8973 50.5566C26.946 47.0539 34.946 43.0323 42.9028 43.162C50.8595 43.2918 59.8109 46.9242 67.7244 50.1242C76.2865 53.5837 83.6811 56.5675 85.8865 53.4972C87.6595 51.0756 86.7082 47.962 85.5406 45.7566C83.0325 40.8269 77.1946 35.4647 69.973 31.3999C62.0163 26.8593 53.1082 24.3945 44.9352 24.3945Z" fill="black"/>
</svg>
