<svg width="120" height="115" viewBox="0 0 120 115" fill="none" xmlns="http://www.w3.org/2000/svg">
<path d="M63.8751 4.91026L79.3164 36.1773L113.808 41.1766C117.387 41.7091 118.807 46.0871 116.233 48.631L91.267 72.9762L97.1535 107.349C97.7747 110.928 94.018 113.65 90.8233 111.964L59.9702 95.6943L29.1171 111.905C25.9224 113.591 22.1656 110.869 22.7869 107.29L28.6734 72.9171L3.70727 48.5719C1.1041 46.0575 2.55363 41.6501 6.13288 41.1175L40.6242 36.1183L56.0655 4.85121C57.6631 1.65644 62.2777 1.65644 63.8751 4.91026Z" fill="#E3334F"/>
<path d="M27.0765 114.833C25.6862 114.833 24.2959 114.39 23.1125 113.532C21.0124 111.994 19.977 109.479 20.4206 106.906L26.1002 73.7751L2.05088 50.3171C0.187339 48.5127 -0.463506 45.8504 0.335185 43.3656C1.13388 40.9104 3.23406 39.1355 5.80771 38.751L39.0566 33.9293L53.9359 3.78635C55.0895 1.44954 57.3968 0 60 0C62.6032 0 64.9105 1.44954 66.0641 3.78635L80.9433 33.9293L114.192 38.751C116.766 39.1355 118.866 40.8809 119.665 43.3656C120.463 45.8207 119.813 48.4831 117.949 50.3171L93.8998 73.7749L99.5794 106.906C100.023 109.449 98.9878 111.993 96.8874 113.532C94.7873 115.07 92.0658 115.247 89.7585 114.034L59.9705 98.4158L30.2415 114.064C29.2357 114.567 28.1413 114.833 27.0765 114.833ZM59.9705 4.85121C59.6155 4.85121 58.6985 4.96952 58.1955 5.94579L42.7542 37.2129C42.3993 37.9228 41.7189 38.4258 40.9497 38.5144L6.45835 43.5431C5.36377 43.691 4.97929 44.5194 4.86097 44.8744C4.74265 45.2293 4.56508 46.1168 5.36377 46.8859L30.3301 71.2312C30.8922 71.7932 31.1583 72.5919 31.0105 73.3611L25.1535 107.734C24.9759 108.829 25.6267 109.45 25.9226 109.657C26.2185 109.864 27.0172 110.308 27.9933 109.805L58.8463 93.5943C59.5563 93.2394 60.3845 93.2394 61.0648 93.5943L91.9179 109.805C92.8942 110.308 93.6927 109.864 93.9886 109.657C94.2845 109.45 94.9648 108.829 94.7577 107.734L88.8712 73.3611C88.7529 72.5919 88.9895 71.7932 89.5516 71.2312L114.518 46.8859C115.317 46.1168 115.139 45.2295 115.021 44.8744C114.902 44.5194 114.518 43.6912 113.423 43.5431L78.9319 38.5439C78.1628 38.4256 77.4824 37.9523 77.1275 37.2424L61.7452 5.94579C61.2424 4.96952 60.3254 4.85121 59.9705 4.85121Z" fill="black"/>
</svg>
