<svg width="74" height="120" viewBox="0 0 74 120" fill="none" xmlns="http://www.w3.org/2000/svg">
<path fill-rule="evenodd" clip-rule="evenodd" d="M36.8556 73.6943C36.4843 73.6943 36.1299 73.5593 35.8599 73.2893C27.1017 64.5479 18.0565 55.4859 11.3571 46.5589C3.71256 36.3662 0 27.3886 0 19.1365C0 8.58951 8.58951 0 19.1365 0C28.1311 0 32.8224 4.40444 36.8556 11.6777C40.8719 4.40444 45.5632 0 54.5746 0C65.1216 0 73.6943 8.58951 73.6943 19.1365C73.6943 27.4054 69.9817 36.3662 62.3372 46.5589C55.6377 55.5027 46.5926 64.5479 37.8343 73.2893C37.5643 73.5593 37.21 73.6943 36.8556 73.6943ZM64.5141 103.85H9.18014C8.40388 103.85 7.76262 103.226 7.76262 102.45V84.2919C7.76262 83.5157 8.40388 82.8913 9.18014 82.8913H64.5141C65.2904 82.8913 65.9317 83.5157 65.9317 84.2919V102.45C65.9317 103.226 65.2904 103.85 64.5141 103.85ZM26.3592 80.0731V67.7373C28.8567 70.2855 31.388 72.7999 33.8687 75.2805C35.5056 76.9174 38.1887 76.9174 39.8256 75.2805C42.3063 72.783 44.8376 70.2855 47.3351 67.7373V80.0731H26.3592ZM47.3351 106.669V118.549C47.3351 119.325 46.7107 119.966 45.9345 119.966H27.7598C26.9835 119.966 26.3592 119.325 26.3592 118.549V106.669H47.3351ZM30.4092 60.5484C30.038 60.5484 29.6667 60.4134 29.3967 60.1266C23.2372 53.7646 18.8328 48.7189 15.1034 43.7407C14.6309 43.1163 14.7659 42.2388 15.3902 41.7663C16.0146 41.3106 16.8921 41.4288 17.3478 42.0532C21.0097 46.9301 25.3466 51.9083 31.4217 58.169C32.2824 59.0634 31.6242 60.5484 30.4092 60.5484ZM57.4603 44.3144C56.3465 44.3144 55.6377 42.9982 56.3465 42.0532C62.9785 33.2105 66.2017 25.7179 66.2017 19.1365C66.2017 18.3603 66.826 17.719 67.6023 17.719C68.3786 17.719 69.003 18.3603 69.003 19.1365C69.003 26.3423 65.5941 34.3918 58.5909 43.7407C58.3209 44.1119 57.899 44.3144 57.4603 44.3144Z" fill="url(#paint0_linear_3_77)"/>
<defs>
<linearGradient id="paint0_linear_3_77" x1="11.6029" y1="6.88936" x2="62.0932" y2="113.079" gradientUnits="userSpaceOnUse">
<stop stop-color="#A96F44"/>
<stop offset="1" stop-color="#F2ECB6"/>
</linearGradient>
</defs>
</svg>
